# xmcd
#
# Track frame offsets:
#   150
#   1802
#   8092
#   8795
#   30489
#   54351
#   76895
#   97544
#   119404
#   140355
#   168699
#   193136
#   216750
#   236809
#   270699
#
# Disc length: 3876 seconds
#
# Revision: 0
# Processed by: cddbd v1.5.1PL0 Copyright (c) Steve Scherf et al.
# Submitted via: uFREEDB ActiveX Control 1.5
#
DISCID=b70f220f
DTITLE=Gund'art 121  - Até A Alma
DYEAR=2004
DGENRE=Rap
TTITLE0=Intro 01
TTITLE1=Intro 02
TTITLE2=Intro 03
TTITLE3=Sou Daher
TTITLE4=Brasília É o Meu Lugar
TTITLE5=Falo Pela Dor
TTITLE6=Periferia Parte 02
TTITLE7=Heroico Meu Nome
TTITLE8=Até A Alma
TTITLE9=O Malandro
TTITLE10=A Fortaleza
TTITLE11=Quantos Malucos Que Ainda Irão
TTITLE12=Anjo
TTITLE13=Idéia
TTITLE14=Agrdecimentos
EXTD=
EXTT0=
EXTT1=
EXTT2=
EXTT3=
EXTT4=
EXTT5=
EXTT6=
EXTT7=
EXTT8=
EXTT9=
EXTT10=
EXTT11=
EXTT12=
EXTT13=
EXTT14=
PLAYORDER=
